<svg width="1200" height="630" viewBox="0 0 1200 630" fill="none" xmlns="http://www.w3.org/2000/svg">
  <rect width="1200" height="630" rx="32" fill="#020617"/>
  <rect x="52" y="52" width="1096" height="526" rx="28" fill="url(#paint0_linear_91_7)"/>
  <circle cx="187" cy="150" r="72" fill="#8B5CF6" fill-opacity="0.22"/>
  <circle cx="1032" cy="486" r="96" fill="#38BDF8" fill-opacity="0.2"/>
  <rect x="120" y="126" width="248" height="44" rx="22" fill="#111827"/>
  <text x="150" y="155" fill="#A5B4FC" font-family="Segoe UI, Arial, sans-serif" font-size="24" font-weight="700">AI-powered workspace</text>
  <text x="120" y="268" fill="#F8FAFC" font-family="Segoe UI, Arial, sans-serif" font-size="76" font-weight="700">DsSync Hub</text>
  <text x="120" y="336" fill="#CBD5E1" font-family="Segoe UI, Arial, sans-serif" font-size="34">Tasks, notes, chat, files, billing, and AI workflows in one hub.</text>
  <rect x="120" y="410" width="258" height="72" rx="24" fill="#8B5CF6"/>
  <text x="165" y="455" fill="#F8FAFC" font-family="Segoe UI, Arial, sans-serif" font-size="30" font-weight="700">Launch-ready SaaS</text>
  <rect x="728" y="142" width="320" height="120" rx="28" fill="#111827" fill-opacity="0.88"/>
  <rect x="728" y="286" width="320" height="120" rx="28" fill="#111827" fill-opacity="0.88"/>
  <rect x="728" y="430" width="320" height="120" rx="28" fill="#111827" fill-opacity="0.88"/>
  <text x="764" y="196" fill="#F8FAFC" font-family="Segoe UI, Arial, sans-serif" font-size="34" font-weight="700">Realtime chat</text>
  <text x="764" y="228" fill="#94A3B8" font-family="Segoe UI, Arial, sans-serif" font-size="22">Channels, DMs, mentions</text>
  <text x="764" y="340" fill="#F8FAFC" font-family="Segoe UI, Arial, sans-serif" font-size="34" font-weight="700">Task execution</text>
  <text x="764" y="372" fill="#94A3B8" font-family="Segoe UI, Arial, sans-serif" font-size="22">Kanban, due dates, comments</text>
  <text x="764" y="484" fill="#F8FAFC" font-family="Segoe UI, Arial, sans-serif" font-size="34" font-weight="700">Billing and AI</text>
  <text x="764" y="516" fill="#94A3B8" font-family="Segoe UI, Arial, sans-serif" font-size="22">Limits, usage, workspace automations</text>
  <defs>
    <linearGradient id="paint0_linear_91_7" x1="120" y1="92" x2="1094" y2="558" gradientUnits="userSpaceOnUse">
      <stop stop-color="#1E293B"/>
      <stop offset="1" stop-color="#0F172A"/>
    </linearGradient>
  </defs>
</svg>
